# 3ds Max Wavefront OBJ Exporter v0.97b - (c)2007 guruware
# File Created: 26.03.2015 19:03:06

#
# object Cone001
#

v  0.1355 0.0000 -0.0449
v  4.3185 0.0000 -2.0593
v  4.7783 0.0000 -0.0449
v  3.0302 0.0000 -3.6748
v  1.1686 0.0000 -4.5713
v  -0.8976 0.0000 -4.5713
v  -2.7592 0.0000 -3.6748
v  -4.0475 0.0000 -2.0593
v  -4.5073 0.0000 -0.0449
v  -4.0475 0.0000 1.9695
v  -2.7592 0.0000 3.5849
v  -0.8976 0.0000 4.4814
v  1.1686 0.0000 4.4814
v  3.0302 0.0000 3.5849
v  4.3185 0.0000 1.9695
v  0.9722 8.6663 -0.4478
v  1.0641 8.6663 -0.0449
v  0.7145 8.6663 -0.7709
v  0.3421 8.6663 -0.9503
v  -0.0711 8.6663 -0.9503
v  -0.4435 8.6663 -0.7709
v  -0.7012 8.6663 -0.4478
v  -0.7931 8.6663 -0.0449
v  -0.7012 8.6663 0.3580
v  -0.4435 8.6663 0.6811
v  -0.0711 8.6663 0.8604
v  0.3421 8.6663 0.8604
v  0.7145 8.6663 0.6811
v  0.9722 8.6663 0.3580
v  0.1355 8.6663 -0.0449
# 30 vertices

vn 0.0000 -1.0000 -0.0000
vn 0.9191 0.3939 -0.0000
vn 0.8281 0.3939 -0.3988
vn 0.5731 0.3939 -0.7186
vn 0.2045 0.3939 -0.8961
vn -0.2045 0.3939 -0.8961
vn -0.5731 0.3939 -0.7186
vn -0.8281 0.3939 -0.3988
vn -0.9191 0.3939 -0.0000
vn -0.8281 0.3939 0.3988
vn -0.5731 0.3939 0.7186
vn -0.2045 0.3939 0.8961
vn 0.2045 0.3939 0.8961
vn 0.5731 0.3939 0.7186
vn 0.8281 0.3939 0.3988
vn 0.0000 1.0000 -0.0000
# 16 vertex normals

g Cone001
f 1//1 2//1 3//1 
f 1//1 4//1 2//1 
f 1//1 5//1 4//1 
f 1//1 6//1 5//1 
f 1//1 7//1 6//1 
f 1//1 8//1 7//1 
f 1//1 9//1 8//1 
f 1//1 10//1 9//1 
f 1//1 11//1 10//1 
f 1//1 12//1 11//1 
f 1//1 13//1 12//1 
f 1//1 14//1 13//1 
f 1//1 15//1 14//1 
f 1//1 3//1 15//1 
f 3//2 16//3 17//2 
f 3//2 2//3 16//3 
f 2//3 18//4 16//3 
f 2//3 4//4 18//4 
f 4//4 19//5 18//4 
f 4//4 5//5 19//5 
f 5//5 20//6 19//5 
f 5//5 6//6 20//6 
f 6//6 21//7 20//6 
f 6//6 7//7 21//7 
f 7//7 22//8 21//7 
f 7//7 8//8 22//8 
f 8//8 23//9 22//8 
f 8//8 9//9 23//9 
f 9//9 24//10 23//9 
f 9//9 10//10 24//10 
f 10//10 25//11 24//10 
f 10//10 11//11 25//11 
f 11//11 26//12 25//11 
f 11//11 12//12 26//12 
f 12//12 27//13 26//12 
f 12//12 13//13 27//13 
f 13//13 28//14 27//13 
f 13//13 14//14 28//14 
f 14//14 29//15 28//14 
f 14//14 15//15 29//15 
f 15//15 17//2 29//15 
f 15//15 3//2 17//2 
f 30//16 17//16 16//16 
f 30//16 16//16 18//16 
f 30//16 18//16 19//16 
f 30//16 19//16 20//16 
f 30//16 20//16 21//16 
f 30//16 21//16 22//16 
f 30//16 22//16 23//16 
f 30//16 23//16 24//16 
f 30//16 24//16 25//16 
f 30//16 25//16 26//16 
f 30//16 26//16 27//16 
f 30//16 27//16 28//16 
f 30//16 28//16 29//16 
f 30//16 29//16 17//16 
# 56 faces

