# 3ds Max Wavefront OBJ Exporter v0.97b - (c)2007 guruware
# File Created: 25.03.2015 11:46:35

#
# object Pyramid001
#

v  0.0000 16.4019 -0.0000
v  -7.2642 0.0000 7.1420
v  7.2642 0.0000 7.1420
v  7.2642 0.0000 -7.1420
v  -7.2642 0.0000 -7.1420
v  0.0000 0.0000 -0.0000
# 6 vertices

vn 0.0000 0.3992 0.9169
vn 0.9143 0.4049 -0.0000
vn 0.0000 0.3992 -0.9169
vn -0.9143 0.4049 -0.0000
vn 0.0000 -1.0000 -0.0000
# 5 vertex normals

g Pyramid001
f 1//1 2//1 3//1 
f 1//2 3//2 4//2 
f 1//3 4//3 5//3 
f 1//4 5//4 2//4 
f 2//5 6//5 3//5 
f 3//5 6//5 4//5 
f 4//5 6//5 5//5 
f 5//5 6//5 2//5 
# 8 faces

